<svg width="350" height="287" viewBox="0 0 350 287" fill="none" xmlns="http://www.w3.org/2000/svg">
<path d="M162.002 94C161.002 94 160.502 93.6333 160.502 92.9C160.502 92.3 160.935 91.9 161.802 91.7L164.102 91.3C165.502 91.0333 166.402 90.6667 166.802 90.2C167.268 89.7333 167.502 88.8 167.502 87.4V28.6C167.502 27.2 167.268 26.2667 166.802 25.8C166.402 25.3333 165.502 24.9667 164.102 24.7L161.802 24.3C160.935 24.1 160.502 23.7 160.502 23.1C160.502 22.3667 161.002 22 162.002 22H194.202C195.735 22 196.568 22.7667 196.702 24.3L197.502 40.9C197.635 42.0333 197.202 42.6 196.202 42.6C195.402 42.6 194.935 42.1667 194.802 41.3L194.302 38C193.768 34.5333 192.835 31.8333 191.502 29.9C190.168 27.9667 188.668 26.6 187.002 25.8C185.335 24.9333 183.735 24.5 182.202 24.5C179.268 24.5 177.268 24.9667 176.202 25.9C175.135 26.8333 174.602 28.2667 174.602 30.2V53.8C174.602 54.7333 175.068 55.2 176.002 55.2H179.502C182.435 55.2 184.235 53.6333 184.902 50.5L186.002 45.5C186.202 44.6333 186.702 44.2 187.502 44.2C188.302 44.2 188.702 44.7667 188.702 45.9V68.4C188.702 69.5333 188.302 70.1 187.502 70.1C186.702 70.1 186.202 69.6667 186.002 68.8L184.902 63.9C184.435 61.5667 183.768 60.0333 182.902 59.3C182.102 58.5667 180.935 58.2 179.402 58.2H176.002C175.068 58.2 174.602 58.6667 174.602 59.6V86.9C174.602 88.3 174.802 89.3 175.202 89.9C175.668 90.4333 176.602 90.8 178.002 91L182.702 91.7C183.435 91.8333 183.802 92.2 183.802 92.8C183.802 93.6 183.302 94 182.302 94H162.002ZM207.65 33.5C206.25 33.5 205.05 33 204.05 32C203.117 31 202.65 29.7333 202.65 28.2C202.65 26.6667 203.117 25.4333 204.05 24.5C205.05 23.5 206.25 23 207.65 23C209.05 23 210.217 23.5 211.15 24.5C212.083 25.4333 212.55 26.6667 212.55 28.2C212.55 29.7333 212.083 31 211.15 32C210.217 33 209.05 33.5 207.65 33.5ZM199.25 94C198.25 94 197.75 93.6333 197.75 92.9C197.75 92.3 198.183 91.9 199.05 91.7L200.25 91.5C201.917 91.2333 202.983 90.8333 203.45 90.3C203.917 89.7 204.15 88.7 204.15 87.3V53.7C204.15 52.5 203.95 51.7 203.55 51.3C203.217 50.8333 202.583 50.5333 201.65 50.4L199.55 50.1C198.683 50.0333 198.25 49.6667 198.25 49C198.25 48.4667 198.783 48.1 199.85 47.9C201.917 47.5667 203.583 47.0333 204.85 46.3C206.117 45.5667 207.35 44.6667 208.55 43.6C209.15 43 209.65 42.7 210.05 42.7C210.65 42.7 210.95 43.1 210.95 43.9V87.3C210.95 88.7 211.15 89.7 211.55 90.3C211.95 90.9 212.717 91.2667 213.85 91.4L216.35 91.7C217.083 91.8333 217.45 92.2 217.45 92.8C217.45 93.6 216.95 94 215.95 94H199.25ZM219.516 94C218.516 94 218.016 93.6333 218.016 92.9C218.016 92.3 218.449 91.9 219.316 91.7L220.516 91.5C221.916 91.2333 222.816 90.8333 223.216 90.3C223.682 89.7 223.916 88.7 223.916 87.3V53.7C223.916 52.5 223.716 51.7 223.316 51.3C222.982 50.8333 222.349 50.5333 221.416 50.4L219.316 50.1C218.449 50.0333 218.016 49.6667 218.016 49C218.016 48.4667 218.549 48.1 219.616 47.9C221.682 47.5667 223.249 47.0333 224.316 46.3C225.449 45.5667 226.616 44.6667 227.816 43.6C228.416 43 228.916 42.7 229.316 42.7C229.916 42.7 230.216 43.1 230.216 43.9V48.4C230.216 49 230.416 49.4 230.816 49.6C231.282 49.7333 231.782 49.5333 232.316 49C234.982 46.4667 237.316 44.7333 239.316 43.8C241.382 42.8667 243.549 42.4 245.816 42.4C248.816 42.4 251.216 43.4667 253.016 45.6C254.816 47.6667 255.716 50.7333 255.716 54.8V87.3C255.716 88.7 255.916 89.7 256.316 90.3C256.782 90.8333 257.716 91.2 259.116 91.4L261.316 91.7C262.049 91.8333 262.416 92.2333 262.416 92.9C262.416 93.6333 262.016 94 261.216 94H244.416C243.482 94 243.016 93.6333 243.016 92.9C243.016 92.2333 243.382 91.8333 244.116 91.7L245.516 91.5C246.916 91.3 247.816 90.9 248.216 90.3C248.682 89.7 248.916 88.7 248.916 87.3V55.9C248.916 52.6333 248.316 50.3333 247.116 49C245.916 47.6667 244.216 47 242.016 47C239.882 47 237.949 47.6333 236.216 48.9C234.549 50.1 233.216 51.7333 232.216 53.8C231.216 55.8 230.716 58.0333 230.716 60.5V87.3C230.716 88.7 230.916 89.7 231.316 90.3C231.782 90.9 232.716 91.2667 234.116 91.4L236.816 91.7C237.549 91.8333 237.916 92.2 237.916 92.8C237.916 93.6 237.416 94 236.416 94H219.516ZM279.588 94.9C276.655 94.9 274.022 93.9 271.688 91.9C269.422 89.8333 267.655 87 266.388 83.4C265.122 79.7333 264.488 75.5 264.488 70.7C264.488 65.1 265.355 60.2 267.088 56C268.822 51.7333 271.222 48.4 274.288 46C277.355 43.6 280.822 42.4 284.688 42.4C285.622 42.4 286.555 42.5 287.488 42.7C288.422 42.8333 289.322 43.1 290.188 43.5C291.255 44.0333 291.788 43.8 291.788 42.8V30C291.788 28.8 291.588 27.9667 291.188 27.5C290.855 27.0333 290.222 26.7667 289.288 26.7L286.688 26.4C285.955 26.2667 285.588 25.8667 285.588 25.2C285.588 24.5333 285.955 24.1333 286.688 24C288.822 23.6 290.522 23.1333 291.788 22.6C293.122 22.0667 294.222 21.5333 295.088 21C296.155 20.3333 296.955 20 297.488 20C298.222 20 298.588 20.5333 298.588 21.6V84.5C298.588 87.3 299.288 88.7 300.688 88.7C301.555 88.7 302.355 88.1333 303.088 87C303.822 85.8 304.188 83.8 304.188 81C304.188 79.9333 304.622 79.4 305.488 79.4C306.288 79.4 306.688 79.9667 306.688 81.1C306.688 85.9667 305.855 89.5 304.188 91.7C302.522 93.8333 300.622 94.9 298.488 94.9C296.555 94.9 295.088 94.2667 294.088 93C293.088 91.6667 292.422 90.1 292.088 88.3C292.022 87.7667 291.788 87.5 291.388 87.5C290.988 87.4333 290.622 87.6667 290.288 88.2C288.422 90.8 286.722 92.5667 285.188 93.5C283.655 94.4333 281.788 94.9 279.588 94.9ZM281.788 90.3C283.522 90.3 285.122 89.7333 286.588 88.6C288.122 87.4 289.355 85.8 290.288 83.8C291.288 81.8 291.788 79.5667 291.788 77.1V54.6C291.788 51.6 291.088 49.2333 289.688 47.5C288.355 45.7667 286.588 44.9 284.388 44.9C280.655 44.9 277.622 47.1 275.288 51.5C273.022 55.8333 271.888 61.7667 271.888 69.3C271.888 76.1667 272.755 81.4 274.488 85C276.288 88.5333 278.722 90.3 281.788 90.3Z" fill="#171717"/>
<path d="M1.40156 167C0.468229 167 0.00156228 166.667 0.00156228 166C0.00156228 165.267 0.668229 164.8 2.00156 164.6L4.00156 164.3C5.46823 164.1 6.46823 163.767 7.00156 163.3C7.5349 162.767 7.96823 161.8 8.30156 160.4L21.9016 101.6C22.2349 100.267 22.2349 99.3667 21.9016 98.9C21.5682 98.3667 20.7349 97.9667 19.4016 97.7L17.4016 97.3C16.5349 97.1 16.1016 96.7333 16.1016 96.2C16.1016 95.4 16.7016 95 17.9016 95H37.0016C41.4682 95 45.1016 96.2333 47.9016 98.7C50.7016 101.167 52.1016 104.367 52.1016 108.3C52.1016 112.033 50.7682 115.567 48.1016 118.9C45.4349 122.233 41.8682 124.667 37.4016 126.2C37.0682 126.267 36.9016 126.433 36.9016 126.7C36.9016 126.9 37.0682 127.067 37.4016 127.2C40.8682 128.467 43.5016 130.5 45.3016 133.3C47.1016 136.1 48.0016 139.367 48.0016 143.1C48.0016 147.5 46.8349 151.533 44.5016 155.2C42.1682 158.8 39.0016 161.667 35.0016 163.8C31.0682 165.933 26.6682 167 21.8016 167H1.40156ZM28.8016 125.9C31.7349 125.9 34.4016 125.133 36.8016 123.6C39.2682 122.067 41.2349 120 42.7016 117.4C44.1682 114.733 44.9016 111.833 44.9016 108.7C44.9016 105.167 44.0016 102.433 42.2016 100.5C40.4682 98.5 38.0349 97.5 34.9016 97.5C31.4349 97.5 29.4016 98.8333 28.8016 101.5L24.5016 120.4C24.0349 122.4 24.1349 123.833 24.8016 124.7C25.4682 125.5 26.8016 125.9 28.8016 125.9ZM22.1016 164.5C25.6349 164.5 28.8016 163.567 31.6016 161.7C34.4016 159.767 36.6016 157.133 38.2016 153.8C39.8682 150.467 40.7016 146.733 40.7016 142.6C40.7016 138.067 39.6349 134.567 37.5016 132.1C35.4349 129.633 32.5016 128.4 28.7016 128.4C24.5682 128.4 22.1349 130.167 21.4016 133.7L15.9016 157.6C14.8349 162.2 16.9016 164.5 22.1016 164.5ZM62.3531 167.9C58.8198 167.9 55.9865 166.533 53.8531 163.8C51.7198 161 50.6531 157.067 50.6531 152C50.6531 147.6 51.4198 143.233 52.9531 138.9C54.5531 134.567 56.6198 130.633 59.1531 127.1C61.6865 123.567 64.4531 120.733 67.4531 118.6C70.5198 116.467 73.4865 115.4 76.3531 115.4C79.4865 115.4 81.7198 116.167 83.0531 117.7C84.4531 119.167 85.1531 121.167 85.1531 123.7C85.1531 126.7 84.0865 129.7 81.9531 132.7C79.8865 135.633 76.9531 138.267 73.1531 140.6C69.4198 142.933 65.0198 144.667 59.9531 145.8C58.4865 146.133 57.7198 146.967 57.6531 148.3C57.5865 148.767 57.5531 149.267 57.5531 149.8C57.5531 150.267 57.5531 150.733 57.5531 151.2C57.5531 155 58.1865 157.867 59.4531 159.8C60.7865 161.733 62.5865 162.7 64.8531 162.7C67.3865 162.7 69.8198 161.533 72.1531 159.2C74.5531 156.867 76.5531 153.567 78.1531 149.3C78.3531 148.7 78.7531 148.4 79.3531 148.4C79.7531 148.4 79.9865 148.567 80.0531 148.9C80.1865 149.233 80.1865 149.633 80.0531 150.1C77.9198 155.967 75.3198 160.4 72.2531 163.4C69.2531 166.4 65.9531 167.9 62.3531 167.9ZM58.6531 142C58.5198 142.467 58.5865 142.867 58.8531 143.2C59.1865 143.467 59.5865 143.533 60.0531 143.4C64.1865 142.267 67.6531 140.567 70.4531 138.3C73.2531 135.967 75.3531 133.367 76.7531 130.5C78.2198 127.633 78.9531 124.833 78.9531 122.1C78.9531 119.3 77.8531 117.9 75.6531 117.9C73.7198 117.9 71.6198 119.033 69.3531 121.3C67.0865 123.567 64.9865 126.533 63.0531 130.2C61.1198 133.867 59.6531 137.8 58.6531 142ZM92.4188 167.9C90.1521 167.9 88.3854 167 87.1188 165.2C85.8521 163.4 85.6521 160.5 86.5188 156.5L94.8188 120.3C95.0188 119.3 94.6188 118.8 93.6188 118.8H89.8188C88.8854 118.8 88.4188 118.367 88.4188 117.5C88.4188 117.033 88.5854 116.667 88.9188 116.4C89.2521 116.133 89.6521 116 90.1188 116H93.7188C95.2521 116 96.1521 115.3 96.4188 113.9L98.8188 103.2C99.0188 102.467 99.4854 102.1 100.219 102.1H104.319C105.252 102.1 105.619 102.533 105.419 103.4L102.919 114.5C102.719 115.5 103.119 116 104.119 116H109.819C110.952 116 111.519 116.433 111.519 117.3C111.519 118.3 110.819 118.8 109.419 118.8H104.019C102.552 118.8 101.652 119.5 101.319 120.9L92.9188 157.5C92.5854 158.967 92.6188 160.133 93.0188 161C93.4854 161.8 94.2521 162.2 95.3188 162.2C96.8521 162.2 98.2521 161.333 99.5188 159.6C100.852 157.867 102.252 154.567 103.719 149.7C103.985 148.833 104.419 148.4 105.019 148.4C105.485 148.4 105.785 148.6 105.919 149C106.052 149.4 105.952 150.133 105.619 151.2C104.352 155.733 102.952 159.2 101.419 161.6C99.9521 164 98.4521 165.667 96.9187 166.6C95.3854 167.467 93.8854 167.9 92.4188 167.9ZM117.665 167.9C115.398 167.9 113.632 167 112.365 165.2C111.098 163.4 110.898 160.5 111.765 156.5L120.065 120.3C120.265 119.3 119.865 118.8 118.865 118.8H115.065C114.132 118.8 113.665 118.367 113.665 117.5C113.665 117.033 113.832 116.667 114.165 116.4C114.498 116.133 114.898 116 115.365 116H118.965C120.498 116 121.398 115.3 121.665 113.9L124.065 103.2C124.265 102.467 124.732 102.1 125.465 102.1H129.565C130.498 102.1 130.865 102.533 130.665 103.4L128.165 114.5C127.965 115.5 128.365 116 129.365 116H135.065C136.198 116 136.765 116.433 136.765 117.3C136.765 118.3 136.065 118.8 134.665 118.8H129.265C127.798 118.8 126.898 119.5 126.565 120.9L118.165 157.5C117.832 158.967 117.865 160.133 118.265 161C118.732 161.8 119.498 162.2 120.565 162.2C122.098 162.2 123.498 161.333 124.765 159.6C126.098 157.867 127.498 154.567 128.965 149.7C129.232 148.833 129.665 148.4 130.265 148.4C130.732 148.4 131.032 148.6 131.165 149C131.298 149.4 131.198 150.133 130.865 151.2C129.598 155.733 128.198 159.2 126.665 161.6C125.198 164 123.698 165.667 122.165 166.6C120.632 167.467 119.132 167.9 117.665 167.9ZM145.025 167.9C141.492 167.9 138.658 166.533 136.525 163.8C134.392 161 133.325 157.067 133.325 152C133.325 147.6 134.092 143.233 135.625 138.9C137.225 134.567 139.292 130.633 141.825 127.1C144.358 123.567 147.125 120.733 150.125 118.6C153.192 116.467 156.158 115.4 159.025 115.4C162.158 115.4 164.392 116.167 165.725 117.7C167.125 119.167 167.825 121.167 167.825 123.7C167.825 126.7 166.758 129.7 164.625 132.7C162.558 135.633 159.625 138.267 155.825 140.6C152.092 142.933 147.692 144.667 142.625 145.8C141.158 146.133 140.392 146.967 140.325 148.3C140.258 148.767 140.225 149.267 140.225 149.8C140.225 150.267 140.225 150.733 140.225 151.2C140.225 155 140.858 157.867 142.125 159.8C143.458 161.733 145.258 162.7 147.525 162.7C150.058 162.7 152.492 161.533 154.825 159.2C157.225 156.867 159.225 153.567 160.825 149.3C161.025 148.7 161.425 148.4 162.025 148.4C162.425 148.4 162.658 148.567 162.725 148.9C162.858 149.233 162.858 149.633 162.725 150.1C160.592 155.967 157.992 160.4 154.925 163.4C151.925 166.4 148.625 167.9 145.025 167.9ZM141.325 142C141.192 142.467 141.258 142.867 141.525 143.2C141.858 143.467 142.258 143.533 142.725 143.4C146.858 142.267 150.325 140.567 153.125 138.3C155.925 135.967 158.025 133.367 159.425 130.5C160.892 127.633 161.625 124.833 161.625 122.1C161.625 119.3 160.525 117.9 158.325 117.9C156.392 117.9 154.292 119.033 152.025 121.3C149.758 123.567 147.658 126.533 145.725 130.2C143.792 133.867 142.325 137.8 141.325 142ZM171.291 167C170.357 167 169.991 166.567 170.191 165.7L179.691 125.8C180.024 124.333 180.057 123.2 179.791 122.4C179.591 121.533 178.991 121.1 177.991 121.1C176.791 121.1 175.457 122 173.991 123.8C172.591 125.533 170.991 128.867 169.191 133.8C168.924 134.667 168.457 135.1 167.791 135.1C166.791 135.1 166.524 134.5 166.991 133.3C168.457 128.7 169.991 125.1 171.591 122.5C173.257 119.9 174.924 118.067 176.591 117C178.257 115.933 179.791 115.4 181.191 115.4C183.391 115.4 184.957 116.233 185.891 117.9C186.824 119.5 186.857 122.167 185.991 125.9L184.891 130.6C184.824 131.067 184.924 131.333 185.191 131.4C185.457 131.467 185.691 131.3 185.891 130.9C188.424 125.1 190.724 121.067 192.791 118.8C194.857 116.533 197.224 115.4 199.891 115.4C201.691 115.4 203.024 115.9 203.891 116.9C204.824 117.833 205.291 119.133 205.291 120.8C205.291 122.467 204.891 123.8 204.091 124.8C203.291 125.8 202.257 126.3 200.991 126.3C199.924 126.3 199.157 126.033 198.691 125.5C198.224 124.967 197.857 124.367 197.591 123.7C197.391 122.967 197.157 122.333 196.891 121.8C196.624 121.267 196.191 121 195.591 121C194.591 121 193.291 122.267 191.691 124.8C190.091 127.333 188.357 130.767 186.491 135.1C184.691 139.367 182.924 144.167 181.191 149.5C179.524 154.833 178.057 160.3 176.791 165.9C176.591 166.633 176.124 167 175.391 167H171.291Z" fill="#171717"/>
<path d="M136.002 261C135.002 261 134.502 260.633 134.502 259.9C134.502 259.3 134.935 258.9 135.802 258.7L138.102 258.3C139.502 258.033 140.402 257.667 140.802 257.2C141.268 256.733 141.502 255.8 141.502 254.4V195.6C141.502 194.2 141.268 193.267 140.802 192.8C140.402 192.333 139.502 191.967 138.102 191.7L135.802 191.3C134.935 191.1 134.502 190.7 134.502 190.1C134.502 189.367 135.002 189 136.002 189H156.902C160.835 189 164.302 189.867 167.302 191.6C170.302 193.267 172.635 195.6 174.302 198.6C175.968 201.6 176.802 205.067 176.802 209C176.802 212.8 175.968 216.167 174.302 219.1C172.635 222.033 170.335 224.333 167.402 226C164.468 227.6 161.068 228.4 157.202 228.4H150.002C149.068 228.4 148.602 228.867 148.602 229.8V254C148.602 255.4 148.868 256.367 149.402 256.9C149.935 257.367 151.135 257.767 153.002 258.1L156.702 258.7C157.435 258.833 157.802 259.2 157.802 259.8C157.802 260.6 157.302 261 156.302 261H136.002ZM148.602 220.4C148.602 224.067 150.835 225.9 155.302 225.9C159.635 225.9 163.035 224.367 165.502 221.3C168.035 218.233 169.302 214.033 169.302 208.7C169.302 203.233 168.035 199 165.502 196C162.968 193 159.368 191.5 154.702 191.5C150.635 191.5 148.602 192.833 148.602 195.5V220.4ZM179.184 261C178.384 261 177.984 260.633 177.984 259.9C177.984 259.233 178.35 258.833 179.084 258.7L180.484 258.5C181.884 258.3 182.917 257.9 183.584 257.3C184.25 256.7 184.584 255.7 184.584 254.3V197C184.584 195.8 184.384 194.967 183.984 194.5C183.65 194.033 183.017 193.767 182.084 193.7L179.784 193.4C179.05 193.267 178.684 192.867 178.684 192.2C178.684 191.533 179.05 191.133 179.784 191C181.65 190.6 183.25 190.133 184.584 189.6C185.917 189.067 187.017 188.533 187.884 188C188.95 187.333 189.75 187 190.284 187C191.017 187 191.384 187.533 191.384 188.6V254.3C191.384 255.7 191.584 256.7 191.984 257.3C192.45 257.833 193.384 258.2 194.784 258.4L197.084 258.7C197.817 258.833 198.184 259.233 198.184 259.9C198.184 260.633 197.784 261 196.984 261H179.184ZM209.156 261.9C206.356 261.9 204.056 261.033 202.256 259.3C200.456 257.5 199.556 255.133 199.556 252.2C199.556 249.333 200.456 246.633 202.256 244.1C204.056 241.5 206.523 239.167 209.656 237.1C212.79 235.033 216.356 233.367 220.356 232.1C221.223 231.833 221.656 231.267 221.656 230.4V221.3C221.656 218.1 221.156 215.833 220.156 214.5C219.156 213.1 217.79 212.4 216.056 212.4C214.39 212.4 212.856 213.167 211.456 214.7C210.123 216.167 209.156 218.667 208.556 222.2C208.223 224.333 207.49 225.9 206.356 226.9C205.29 227.833 204.19 228.3 203.056 228.3C201.19 228.3 200.256 227.367 200.256 225.5C200.256 223.567 200.79 221.667 201.856 219.8C202.99 217.867 204.456 216.133 206.256 214.6C208.056 213 210.023 211.733 212.156 210.8C214.29 209.867 216.423 209.4 218.556 209.4C225.156 209.4 228.456 213.233 228.456 220.9V251.5C228.456 254.3 229.156 255.7 230.556 255.7C231.423 255.7 232.223 255.133 232.956 254C233.69 252.8 234.056 250.8 234.056 248C234.056 246.933 234.49 246.4 235.356 246.4C236.156 246.4 236.556 246.967 236.556 248.1C236.556 252.967 235.69 256.5 233.956 258.7C232.29 260.833 230.39 261.9 228.256 261.9C226.656 261.9 225.39 261.267 224.456 260C223.523 258.667 222.89 257.1 222.556 255.3C222.49 254.633 222.19 254.3 221.656 254.3C221.19 254.233 220.723 254.533 220.256 255.2C218.656 257.4 217.023 259.067 215.356 260.2C213.69 261.333 211.623 261.9 209.156 261.9ZM211.856 257.3C213.59 257.3 215.19 256.7 216.656 255.5C218.123 254.233 219.323 252.567 220.256 250.5C221.19 248.433 221.656 246.1 221.656 243.5V236.2C221.656 234.933 220.956 234.567 219.556 235.1C215.49 236.567 212.323 238.6 210.056 241.2C207.856 243.733 206.756 246.8 206.756 250.4C206.756 255 208.456 257.3 211.856 257.3ZM253.098 261.9C250.164 261.9 247.498 260.933 245.098 259C242.764 257 240.898 254.167 239.498 250.5C238.098 246.833 237.398 242.467 237.398 237.4C237.398 231.733 238.231 226.8 239.898 222.6C241.631 218.4 243.964 215.167 246.898 212.9C249.831 210.567 253.098 209.4 256.698 209.4C259.764 209.4 262.164 210 263.898 211.2C264.564 211.667 264.898 212.4 264.898 213.4L265.098 225.6C265.098 226.6 264.698 227.1 263.898 227.1C263.164 227.1 262.698 226.667 262.498 225.8C261.564 222.133 260.664 219.3 259.798 217.3C258.931 215.3 258.031 213.933 257.098 213.2C256.164 212.4 255.131 212 253.998 212C252.664 212 251.264 212.767 249.798 214.3C248.398 215.833 247.198 218.333 246.198 221.8C245.264 225.2 244.798 229.7 244.798 235.3C244.798 242.433 245.698 247.8 247.498 251.4C249.364 255 251.764 256.8 254.698 256.8C257.031 256.8 258.964 255.833 260.498 253.9C262.098 251.967 263.464 248.467 264.598 243.4C264.798 242.667 265.198 242.3 265.798 242.3C266.598 242.3 266.898 242.967 266.698 244.3C265.964 248.967 264.931 252.6 263.598 255.2C262.331 257.733 260.798 259.5 258.998 260.5C257.264 261.433 255.298 261.9 253.098 261.9ZM286.184 261.9C282.984 261.9 280.118 260.833 277.584 258.7C275.051 256.567 273.018 253.567 271.484 249.7C270.018 245.767 269.284 241.233 269.284 236.1C269.284 230.833 270.051 226.2 271.584 222.2C273.118 218.2 275.218 215.067 277.884 212.8C280.551 210.533 283.518 209.4 286.784 209.4C290.718 209.4 293.884 211.033 296.284 214.3C298.751 217.5 299.984 222.733 299.984 230C299.984 232.2 299.151 233.3 297.484 233.3H278.484C277.151 233.3 276.484 234.067 276.484 235.6C276.484 242.667 277.518 247.967 279.584 251.5C281.651 255.033 284.284 256.8 287.484 256.8C290.018 256.8 292.084 255.9 293.684 254.1C295.284 252.3 296.584 249.267 297.584 245C297.784 244.267 298.218 243.9 298.884 243.9C299.684 243.9 299.984 244.567 299.784 245.9C298.718 251.833 297.018 256 294.684 258.4C292.351 260.733 289.518 261.9 286.184 261.9ZM278.184 230.8H288.284C291.484 230.8 293.084 229.133 293.084 225.8C293.084 221.467 292.551 218.067 291.484 215.6C290.418 213.133 288.818 211.9 286.684 211.9C284.084 211.9 281.884 213.4 280.084 216.4C278.351 219.4 277.218 223.667 276.684 229.2C276.551 230.267 277.051 230.8 278.184 230.8ZM313.631 261.9C312.098 261.9 310.465 261.7 308.731 261.3C306.998 260.967 305.598 260.533 304.531 260C303.931 259.667 303.631 259.1 303.631 258.3L303.331 247.1C303.331 245.967 303.765 245.4 304.631 245.4C305.365 245.4 305.865 245.933 306.131 247C307.265 251.733 308.631 254.967 310.231 256.7C311.898 258.433 313.898 259.3 316.231 259.3C318.165 259.3 319.765 258.567 321.031 257.1C322.298 255.567 322.931 253.467 322.931 250.8C322.931 248.133 322.198 245.767 320.731 243.7C319.265 241.633 316.798 239.367 313.331 236.9C309.865 234.567 307.331 232.233 305.731 229.9C304.131 227.5 303.331 224.9 303.331 222.1C303.331 218.3 304.665 215.233 307.331 212.9C309.998 210.567 313.531 209.4 317.931 209.4C319.265 209.4 320.565 209.567 321.831 209.9C323.098 210.167 324.231 210.633 325.231 211.3C325.831 211.7 326.131 212.233 326.131 212.9L326.331 223.9C326.331 224.9 325.931 225.4 325.131 225.4C324.665 225.4 324.331 225.267 324.131 225C323.931 224.667 323.765 224.267 323.631 223.8C322.298 219.467 320.965 216.467 319.631 214.8C318.298 213.067 316.665 212.2 314.731 212.2C312.998 212.2 311.565 212.8 310.431 214C309.298 215.2 308.731 216.7 308.731 218.5C308.731 220.833 309.431 222.867 310.831 224.6C312.231 226.333 314.765 228.467 318.431 231C321.765 233.4 324.265 236 325.931 238.8C327.665 241.533 328.531 244.533 328.531 247.8C328.531 252.067 327.165 255.5 324.431 258.1C321.698 260.633 318.098 261.9 313.631 261.9Z" fill="#171717"/>
<g clip-path="url(#clip0_234_4315)">
<rect x="342.531" y="247.302" width="2.1" height="14" rx="0.553459" transform="rotate(12 342.531 247.302)" fill="#815AFF"/>
<rect x="338.941" y="248.035" width="2.1" height="14" rx="0.553459" transform="rotate(-18 338.941 248.035)" fill="#00B8F7"/>
<rect x="336.199" y="250.464" width="2.1" height="14" rx="0.553459" transform="rotate(-48 336.199 250.464)" fill="#00CDA7"/>
<rect x="335.039" y="253.939" width="2.1" height="14" rx="0.553459" transform="rotate(-78 335.039 253.939)" fill="#FFC300"/>
<rect x="335.77" y="257.529" width="2.1" height="14" rx="0.553459" transform="rotate(-108 335.77 257.529)" fill="#FF6020"/>
<rect x="338.199" y="260.272" width="2.1" height="14" rx="0.553459" transform="rotate(-138 338.199 260.272)" fill="#FD1549"/>
</g>
<defs>
<clipPath id="clip0_234_4315">
<rect x="335.102" y="247.368" width="14" height="14" rx="7" fill="white"/>
</clipPath>
</defs>
</svg>
