<svg width="98" height="105" viewBox="0 0 98 105" fill="none" xmlns="http://www.w3.org/2000/svg">
<path d="M87.0531 101.396C86.3784 101.396 85.6598 101.308 84.8971 101.132C84.1345 100.985 83.5185 100.795 83.0491 100.56C82.7851 100.413 82.6531 100.164 82.6531 99.812L82.5211 94.884C82.5211 94.3854 82.7118 94.136 83.0931 94.136C83.4158 94.136 83.6358 94.3707 83.7531 94.84C84.2518 96.9227 84.8531 98.3454 85.5571 99.108C86.2904 99.8707 87.1704 100.252 88.1971 100.252C89.0478 100.252 89.7518 99.9294 90.3091 99.284C90.8665 98.6094 91.1451 97.6854 91.1451 96.512C91.1451 95.3387 90.8224 94.2974 90.1771 93.388C89.5318 92.4787 88.4465 91.4814 86.9211 90.396C85.3958 89.3694 84.2811 88.3427 83.5771 87.316C82.8731 86.26 82.5211 85.116 82.5211 83.884C82.5211 82.212 83.1078 80.8627 84.2811 79.836C85.4544 78.8094 87.0091 78.296 88.9451 78.296C89.5318 78.296 90.1038 78.3694 90.6611 78.516C91.2185 78.6334 91.7171 78.8387 92.1571 79.132C92.4211 79.308 92.5531 79.5427 92.5531 79.836L92.6411 84.676C92.6411 85.116 92.4651 85.336 92.1131 85.336C91.9078 85.336 91.7611 85.2774 91.6731 85.16C91.5851 85.0134 91.5118 84.8374 91.4531 84.632C90.8665 82.7254 90.2798 81.4054 89.6931 80.672C89.1064 79.9094 88.3878 79.528 87.5371 79.528C86.7745 79.528 86.1438 79.792 85.6451 80.32C85.1465 80.848 84.8971 81.508 84.8971 82.3C84.8971 83.3267 85.2051 84.2214 85.8211 84.984C86.4371 85.7467 87.5518 86.6854 89.1651 87.8C90.6318 88.856 91.7318 90 92.4651 91.232C93.2278 92.4347 93.6091 93.7547 93.6091 95.192C93.6091 97.0694 93.0078 98.58 91.8051 99.724C90.6024 100.839 89.0184 101.396 87.0531 101.396Z" fill="#323232"/>
<path d="M74.0964 101.396C72.6884 101.396 71.4271 100.927 70.3124 99.988C69.1977 99.0494 68.3031 97.7294 67.6284 96.028C66.9831 94.2974 66.6604 92.3027 66.6604 90.044C66.6604 87.7267 66.9977 85.688 67.6724 83.928C68.3471 82.168 69.2711 80.7894 70.4444 79.792C71.6177 78.7947 72.9231 78.296 74.3604 78.296C76.0911 78.296 77.4844 79.0147 78.5404 80.452C79.6257 81.86 80.1684 84.1627 80.1684 87.36C80.1684 88.328 79.8017 88.812 79.0684 88.812H70.7084C70.1217 88.812 69.8284 89.1494 69.8284 89.824C69.8284 92.9334 70.2831 95.2654 71.1924 96.82C72.1017 98.3747 73.2604 99.152 74.6684 99.152C75.7831 99.152 76.6924 98.756 77.3964 97.964C78.1004 97.172 78.6724 95.8374 79.1124 93.96C79.2004 93.6374 79.3911 93.476 79.6844 93.476C80.0364 93.476 80.1684 93.7694 80.0804 94.356C79.6111 96.9667 78.8631 98.8 77.8364 99.856C76.8097 100.883 75.5631 101.396 74.0964 101.396ZM70.5764 87.712H75.0204C76.4284 87.712 77.1324 86.9787 77.1324 85.512C77.1324 83.6054 76.8977 82.1094 76.4284 81.024C75.9591 79.9387 75.2551 79.396 74.3164 79.396C73.1724 79.396 72.2044 80.056 71.4124 81.376C70.6497 82.696 70.1511 84.5734 69.9164 87.008C69.8577 87.4774 70.0777 87.712 70.5764 87.712Z" fill="#323232"/>
<path d="M58.6582 101.396C57.3676 101.396 56.1942 100.971 55.1382 100.12C54.1116 99.24 53.2902 97.9934 52.6742 96.38C52.0582 94.7667 51.7502 92.8454 51.7502 90.616C51.7502 88.1227 52.1169 85.952 52.8502 84.104C53.6129 82.256 54.6396 80.8334 55.9302 79.836C57.2209 78.8094 58.6582 78.296 60.2422 78.296C61.5916 78.296 62.6476 78.56 63.4102 79.088C63.7036 79.2934 63.8502 79.616 63.8502 80.056L63.9382 85.424C63.9382 85.864 63.7622 86.084 63.4102 86.084C63.0876 86.084 62.8822 85.8934 62.7942 85.512C62.3836 83.8987 61.9876 82.652 61.6062 81.772C61.2249 80.892 60.8289 80.2907 60.4182 79.968C60.0076 79.616 59.5529 79.44 59.0542 79.44C58.4676 79.44 57.8516 79.7774 57.2062 80.452C56.5902 81.1267 56.0622 82.2267 55.6222 83.752C55.2116 85.248 55.0062 87.228 55.0062 89.692C55.0062 92.8307 55.4022 95.192 56.1942 96.776C57.0156 98.36 58.0716 99.152 59.3622 99.152C60.3889 99.152 61.2396 98.7267 61.9142 97.876C62.6182 97.0254 63.2196 95.4854 63.7182 93.256C63.8062 92.9334 63.9822 92.772 64.2462 92.772C64.5982 92.772 64.7302 93.0654 64.6422 93.652C64.3196 95.7054 63.8649 97.304 63.2782 98.448C62.7209 99.5627 62.0462 100.34 61.2542 100.78C60.4916 101.191 59.6262 101.396 58.6582 101.396Z" fill="#323232"/>
<path d="M38.4441 101.396C37.2121 101.396 36.2001 101.015 35.4081 100.252C34.6161 99.46 34.2201 98.4187 34.2201 97.128C34.2201 95.8667 34.6161 94.6787 35.4081 93.564C36.2001 92.42 37.2854 91.3934 38.6641 90.484C40.0428 89.5747 41.6121 88.8414 43.3721 88.284C43.7534 88.1667 43.9441 87.9174 43.9441 87.536V83.532C43.9441 82.124 43.7241 81.1267 43.2841 80.54C42.8441 79.924 42.2428 79.616 41.4801 79.616C40.7468 79.616 40.0721 79.9534 39.4561 80.628C38.8694 81.2734 38.4441 82.3734 38.1801 83.928C38.0334 84.8667 37.7108 85.556 37.2121 85.996C36.7428 86.4067 36.2588 86.612 35.7601 86.612C34.9388 86.612 34.5281 86.2014 34.5281 85.38C34.5281 84.5294 34.7628 83.6934 35.2321 82.872C35.7308 82.0214 36.3761 81.2587 37.1681 80.584C37.9601 79.88 38.8254 79.3227 39.7641 78.912C40.7028 78.5014 41.6414 78.296 42.5801 78.296C45.4841 78.296 46.9361 79.9827 46.9361 83.356V96.82C46.9361 98.052 47.2441 98.668 47.8601 98.668C48.2414 98.668 48.5934 98.4187 48.9161 97.92C49.2388 97.392 49.4001 96.512 49.4001 95.28C49.4001 94.8107 49.5908 94.576 49.9721 94.576C50.3241 94.576 50.5001 94.8254 50.5001 95.324C50.5001 97.4654 50.1188 99.02 49.3561 99.988C48.6228 100.927 47.7868 101.396 46.8481 101.396C46.1441 101.396 45.5868 101.117 45.1761 100.56C44.7654 99.9734 44.4868 99.284 44.3401 98.492C44.3108 98.1987 44.1788 98.052 43.9441 98.052C43.7388 98.0227 43.5334 98.1547 43.3281 98.448C42.6241 99.416 41.9054 100.149 41.1721 100.648C40.4388 101.147 39.5294 101.396 38.4441 101.396ZM39.6321 99.372C40.3948 99.372 41.0988 99.108 41.7441 98.58C42.3894 98.0227 42.9174 97.2894 43.3281 96.38C43.7388 95.4707 43.9441 94.444 43.9441 93.3V90.088C43.9441 89.5307 43.6361 89.3694 43.0201 89.604C41.2308 90.2494 39.8374 91.144 38.8401 92.288C37.8721 93.4027 37.3881 94.752 37.3881 96.336C37.3881 98.36 38.1361 99.372 39.6321 99.372Z" fill="#323232"/>
<path d="M24.3761 101C24.0241 101 23.8481 100.839 23.8481 100.516C23.8481 100.223 24.0095 100.047 24.3321 99.9879L24.9481 99.8999C25.5641 99.8119 26.0188 99.6359 26.3121 99.3719C26.6055 99.1079 26.7521 98.6679 26.7521 98.0519V72.8399C26.7521 72.3119 26.6641 71.9453 26.4881 71.7399C26.3415 71.5346 26.0628 71.4173 25.6521 71.3879L24.6401 71.2559C24.3175 71.1973 24.1561 71.0213 24.1561 70.7279C24.1561 70.4346 24.3175 70.2586 24.6401 70.1999C25.4615 70.0239 26.1655 69.8186 26.7521 69.5839C27.3388 69.3493 27.8228 69.1146 28.2041 68.8799C28.6735 68.5866 29.0255 68.4399 29.2601 68.4399C29.5828 68.4399 29.7441 68.6746 29.7441 69.1439V98.0519C29.7441 98.6679 29.8321 99.1079 30.0081 99.3719C30.2135 99.6066 30.6241 99.7679 31.2401 99.8559L32.2521 99.9879C32.5748 100.047 32.7361 100.223 32.7361 100.516C32.7361 100.839 32.5601 101 32.2081 101H24.3761Z" fill="#323232"/>
<path d="M4.496 101C4.056 101 3.836 100.839 3.836 100.516C3.836 100.252 4.02667 100.076 4.408 99.9879L5.42 99.8119C6.036 99.6946 6.432 99.5333 6.608 99.3279C6.81333 99.1226 6.916 98.7119 6.916 98.0959V72.2239C6.916 71.6079 6.81333 71.1973 6.608 70.9919C6.432 70.7866 6.036 70.6253 5.42 70.5079L4.408 70.3319C4.02667 70.2439 3.836 70.0679 3.836 69.8039C3.836 69.4813 4.056 69.3199 4.496 69.3199H13.692C15.4227 69.3199 16.948 69.7013 18.268 70.4639C19.588 71.1973 20.6147 72.2239 21.348 73.5439C22.0813 74.8639 22.448 76.3893 22.448 78.1199C22.448 79.7919 22.0813 81.2733 21.348 82.5639C20.6147 83.8546 19.6027 84.8666 18.312 85.5999C17.0213 86.3039 15.5253 86.6559 13.824 86.6559H10.656C10.2453 86.6559 10.04 86.8613 10.04 87.2719V97.9199C10.04 98.5359 10.1573 98.9613 10.392 99.1959C10.6267 99.4013 11.1547 99.5773 11.976 99.7239L13.604 99.9879C13.9267 100.047 14.088 100.208 14.088 100.472C14.088 100.824 13.868 101 13.428 101H4.496ZM10.04 83.1359C10.04 84.7493 11.0227 85.5559 12.988 85.5559C14.8947 85.5559 16.3907 84.8813 17.476 83.5319C18.5907 82.1826 19.148 80.3346 19.148 77.9879C19.148 75.5826 18.5907 73.7199 17.476 72.3999C16.3613 71.0799 14.7773 70.4199 12.724 70.4199C10.9347 70.4199 10.04 71.0066 10.04 72.1799V83.1359Z" fill="#323232"/>
<path d="M46.3981 68.0201C45.6061 68.0201 44.9755 67.7414 44.5061 67.1841C44.0368 66.6561 43.8021 66.0401 43.8021 65.3361C43.8021 64.7787 43.9635 64.3094 44.2861 63.9281C44.6088 63.5467 45.0488 63.3561 45.6061 63.3561C46.0755 63.3561 46.4128 63.4587 46.6181 63.6641C46.8235 63.8694 46.9701 64.1041 47.0581 64.3681C47.1461 64.6321 47.2341 64.8667 47.3221 65.0721C47.4101 65.2774 47.5861 65.3801 47.8501 65.3801C48.1728 65.3801 48.4661 65.1454 48.7301 64.6761C48.9941 64.2361 49.3608 63.2827 49.8301 61.8161C50.1235 60.9361 50.2995 60.1734 50.3581 59.5281C50.4461 58.8827 50.4315 58.1934 50.3141 57.4601C50.2261 56.7267 50.0061 55.8321 49.6541 54.7761L44.8581 39.5081C44.6528 38.8041 44.4475 38.3494 44.2421 38.1441C44.0661 37.9387 43.7728 37.7921 43.3621 37.7041L42.7021 37.5721C42.3208 37.4841 42.1301 37.2934 42.1301 37.0001C42.1301 36.7067 42.3355 36.5601 42.7461 36.5601H50.0061C50.4168 36.5601 50.6221 36.7067 50.6221 37.0001C50.6221 37.3227 50.4315 37.5134 50.0501 37.5721L49.3461 37.6601C48.6421 37.7481 48.1875 37.9241 47.9821 38.1881C47.8061 38.4227 47.8208 38.8627 48.0261 39.5081L51.8981 52.4001C51.9861 52.6934 52.1181 52.8401 52.2941 52.8401C52.4995 52.8401 52.6461 52.6934 52.7341 52.4001L56.4741 40.3001C56.7088 39.5081 56.7675 38.9214 56.6501 38.5401C56.5621 38.1294 56.1515 37.8654 55.4181 37.7481L54.4941 37.5721C54.1128 37.4841 53.9221 37.2934 53.9221 37.0001C53.9221 36.7067 54.1275 36.5601 54.5381 36.5601H60.1261C60.5368 36.5601 60.7421 36.7214 60.7421 37.0441C60.7421 37.3374 60.5661 37.5427 60.2141 37.6601L59.8181 37.7921C59.3781 37.9387 59.0115 38.2027 58.7181 38.5841C58.4248 38.9654 58.1168 39.6254 57.7941 40.5641L51.2381 61.0241C50.5928 63.0774 50.0061 64.6027 49.4781 65.6001C48.9795 66.5974 48.4955 67.2427 48.0261 67.5361C47.5568 67.8587 47.0141 68.0201 46.3981 68.0201Z" fill="#323232"/>
<path d="M31.2253 59.396C29.9933 59.396 28.9813 59.0147 28.1893 58.252C27.3973 57.46 27.0013 56.4187 27.0013 55.128C27.0013 53.8667 27.3973 52.6787 28.1893 51.564C28.9813 50.42 30.0667 49.3934 31.4453 48.484C32.824 47.5747 34.3933 46.8414 36.1533 46.284C36.5347 46.1667 36.7253 45.9174 36.7253 45.536V41.532C36.7253 40.124 36.5053 39.1267 36.0653 38.54C35.6253 37.924 35.024 37.616 34.2613 37.616C33.528 37.616 32.8533 37.9534 32.2373 38.628C31.6507 39.2734 31.2253 40.3734 30.9613 41.928C30.8147 42.8667 30.492 43.556 29.9933 43.996C29.524 44.4067 29.04 44.612 28.5413 44.612C27.72 44.612 27.3093 44.2014 27.3093 43.38C27.3093 42.5294 27.544 41.6934 28.0133 40.872C28.512 40.0214 29.1573 39.2587 29.9493 38.584C30.7413 37.88 31.6067 37.3227 32.5453 36.912C33.484 36.5014 34.4227 36.296 35.3613 36.296C38.2653 36.296 39.7173 37.9827 39.7173 41.356V54.82C39.7173 56.052 40.0253 56.668 40.6413 56.668C41.0227 56.668 41.3747 56.4187 41.6973 55.92C42.02 55.392 42.1813 54.512 42.1813 53.28C42.1813 52.8107 42.372 52.576 42.7533 52.576C43.1053 52.576 43.2813 52.8254 43.2813 53.324C43.2813 55.4654 42.9 57.02 42.1373 57.988C41.404 58.9267 40.568 59.396 39.6293 59.396C38.9253 59.396 38.368 59.1174 37.9573 58.56C37.5467 57.9734 37.268 57.284 37.1213 56.492C37.092 56.1987 36.96 56.052 36.7253 56.052C36.52 56.0227 36.3147 56.1547 36.1093 56.448C35.4053 57.416 34.6867 58.1494 33.9533 58.648C33.22 59.1467 32.3107 59.396 31.2253 59.396ZM32.4133 57.372C33.176 57.372 33.88 57.108 34.5253 56.58C35.1707 56.0227 35.6987 55.2894 36.1093 54.38C36.52 53.4707 36.7253 52.444 36.7253 51.3V48.088C36.7253 47.5307 36.4173 47.3694 35.8013 47.604C34.012 48.2494 32.6187 49.144 31.6213 50.288C30.6533 51.4027 30.1693 52.752 30.1693 54.336C30.1693 56.36 30.9173 57.372 32.4133 57.372Z" fill="#323232"/>
<path d="M15.804 59.396C13.428 59.396 11.4187 58.7213 9.77601 57.372C8.13334 56.0227 6.88668 54.1307 6.03601 51.696C5.18534 49.232 4.76001 46.328 4.76001 42.984C4.76001 39.7573 5.25868 36.9413 6.25601 34.536C7.25334 32.1013 8.61734 30.224 10.348 28.904C12.108 27.5547 14.1173 26.88 16.376 26.88C17.52 26.88 18.5613 26.9973 19.5 27.232C20.4387 27.4373 21.26 27.716 21.964 28.068C22.3453 28.2733 22.536 28.5813 22.536 28.992L22.668 35.68C22.668 36.1787 22.492 36.428 22.14 36.428C21.8173 36.428 21.612 36.2373 21.524 35.856L21.172 34.536C20.5267 32.1013 19.7933 30.4293 18.972 29.52C18.1507 28.6107 17.0213 28.156 15.584 28.156C13.4427 28.156 11.668 29.432 10.26 31.984C8.88134 34.5067 8.19201 38.1733 8.19201 42.984C8.19201 47.9413 8.89601 51.7253 10.304 54.336C11.7413 56.9173 13.5747 58.208 15.804 58.208C17.0067 58.208 17.916 57.944 18.532 57.416C19.148 56.888 19.456 55.9053 19.456 54.468V44.832C19.456 44.216 19.3533 43.7907 19.148 43.556C18.972 43.3213 18.576 43.1747 17.96 43.116L16.244 42.94C15.8627 42.9107 15.672 42.7347 15.672 42.412C15.672 42.0893 15.892 41.928 16.332 41.928H24.384C24.824 41.928 25.044 42.104 25.044 42.456C25.044 42.72 24.8827 42.8813 24.56 42.94L23.9 43.028C23.2547 43.116 22.8733 43.292 22.756 43.556C22.6387 43.82 22.58 44.26 22.58 44.876V56.8C22.58 57.1227 22.492 57.3867 22.316 57.592C22.14 57.768 21.832 57.9733 21.392 58.208C20.688 58.56 19.8813 58.8387 18.972 59.044C18.0627 59.2787 17.0067 59.396 15.804 59.396Z" fill="#323232"/>
<g clip-path="url(#clip0_1_1492)">
<rect x="63.7344" y="2.88806" width="3.6" height="24" rx="0.150943" transform="rotate(12 63.7344 2.88806)" fill="#815AFF"/>
<rect x="57.58" y="4.14355" width="3.6" height="24" rx="0.150943" transform="rotate(-18 57.58 4.14355)" fill="#00B8F7"/>
<rect x="52.8779" y="8.30798" width="3.6" height="24" rx="0.150943" transform="rotate(-48 52.8779 8.30798)" fill="#00CDA7"/>
<rect x="50.8881" y="14.2656" width="3.6" height="24" rx="0.150943" transform="rotate(-78 50.8881 14.2656)" fill="#FFC300"/>
<rect x="52.1436" y="20.42" width="3.6" height="24" rx="0.150943" transform="rotate(-108 52.1436 20.42)" fill="#FF6020"/>
<rect x="56.3082" y="25.1221" width="3.6" height="24" rx="0.150943" transform="rotate(-138 56.3082 25.1221)" fill="#FD1549"/>
</g>
<defs>
<clipPath id="clip0_1_1492">
<rect x="51" y="3" width="24" height="24" rx="12" fill="white"/>
</clipPath>
</defs>
</svg>
