<svg width="87" height="72" viewBox="0 0 87 72" fill="none" xmlns="http://www.w3.org/2000/svg">
<path d="M80.4073 72.0001C79.7554 72.0001 79.061 71.9151 78.3241 71.745C77.5872 71.6033 76.992 71.4191 76.5385 71.1923C76.2834 71.0506 76.1559 70.8097 76.1559 70.4696L76.0283 65.708C76.0283 65.2261 76.2125 64.9852 76.581 64.9852C76.8928 64.9852 77.1053 65.212 77.2187 65.6654C77.7005 67.6778 78.2816 69.0524 78.9618 69.7893C79.6704 70.5263 80.5207 70.8947 81.5127 70.8947C82.3346 70.8947 83.0148 70.5829 83.5534 69.9594C84.0919 69.3075 84.3611 68.4147 84.3611 67.281C84.3611 66.1473 84.0494 65.1411 83.4258 64.2625C82.8023 63.3838 81.7536 62.4202 80.2798 61.3715C78.8059 60.3795 77.7289 59.3875 77.0487 58.3955C76.3684 57.3752 76.0283 56.2698 76.0283 55.0794C76.0283 53.4638 76.5952 52.1601 77.7289 51.1681C78.8626 50.1761 80.3648 49.6801 82.2354 49.6801C82.8023 49.6801 83.355 49.7509 83.8935 49.8926C84.432 50.006 84.9138 50.2044 85.339 50.4878C85.594 50.6579 85.7216 50.8846 85.7216 51.1681L85.8066 55.8446C85.8066 56.2698 85.6366 56.4823 85.2964 56.4823C85.098 56.4823 84.9563 56.4257 84.8713 56.3123C84.7863 56.1706 84.7154 56.0005 84.6587 55.8021C84.0919 53.9598 83.525 52.6844 82.9582 51.9758C82.3913 51.2389 81.6969 50.8705 80.875 50.8705C80.138 50.8705 79.5287 51.1255 79.0468 51.6357C78.565 52.1459 78.3241 52.7836 78.3241 53.5489C78.3241 54.5409 78.6217 55.4053 79.2169 56.1422C79.8121 56.8791 80.8891 57.7861 82.448 58.8632C83.8651 59.8835 84.928 60.9889 85.6366 62.1793C86.3735 63.3413 86.7419 64.6168 86.7419 66.0056C86.7419 67.8195 86.1609 69.2792 84.9988 70.3845C83.8368 71.4616 82.3063 72.0001 80.4073 72.0001Z" fill="white"/>
<path d="M67.8884 72.0001C66.528 72.0001 65.3092 71.5466 64.2322 70.6396C63.1552 69.7327 62.2907 68.4572 61.6388 66.8133C61.0153 65.1411 60.7035 63.2138 60.7035 61.0314C60.7035 58.7923 61.0294 56.8225 61.6813 55.1219C62.3332 53.4213 63.226 52.0892 64.3597 51.1255C65.4934 50.1619 66.7547 49.6801 68.1435 49.6801C69.8157 49.6801 71.162 50.3745 72.1824 51.7633C73.231 53.1237 73.7554 55.3486 73.7554 58.438C73.7554 59.3733 73.4011 59.841 72.6925 59.841H64.6148C64.0479 59.841 63.7645 60.1669 63.7645 60.8188C63.7645 63.8232 64.2038 66.0764 65.0825 67.5786C65.9611 69.0808 67.0806 69.8319 68.4411 69.8319C69.5181 69.8319 70.3968 69.4492 71.077 68.684C71.7572 67.9187 72.3099 66.6291 72.7351 64.8152C72.8201 64.5034 73.0043 64.3475 73.2877 64.3475C73.6279 64.3475 73.7554 64.6309 73.6704 65.1978C73.2169 67.7203 72.4941 69.4917 71.5021 70.5121C70.5101 71.5041 69.3056 72.0001 67.8884 72.0001ZM64.4873 58.7781H68.7812C70.1417 58.7781 70.8219 58.0696 70.8219 56.6524C70.8219 54.8101 70.5952 53.3646 70.1417 52.3159C69.6882 51.2673 69.008 50.7429 68.101 50.7429C66.9956 50.7429 66.0603 51.3806 65.295 52.6561C64.5581 53.9315 64.0763 55.7454 63.8495 58.0979C63.7929 58.5514 64.0054 58.7781 64.4873 58.7781Z" fill="white"/>
<path d="M52.9716 72.0001C51.7245 72.0001 50.5908 71.5891 49.5705 70.7672C48.5785 69.9169 47.7849 68.7123 47.1897 67.1534C46.5945 65.5946 46.2969 63.7381 46.2969 61.5841C46.2969 59.1749 46.6512 57.0776 47.3597 55.2919C48.0966 53.5063 49.0887 52.1317 50.3357 51.1681C51.5828 50.1761 52.9716 49.6801 54.5021 49.6801C55.8059 49.6801 56.8263 49.9351 57.5632 50.4453C57.8466 50.6437 57.9883 50.9555 57.9883 51.3806L58.0733 56.5674C58.0733 56.9925 57.9033 57.2051 57.5632 57.2051C57.2514 57.2051 57.053 57.0209 56.968 56.6524C56.5712 55.0935 56.1885 53.889 55.8201 53.0387C55.4516 52.1884 55.069 51.6074 54.6722 51.2956C54.2754 50.9555 53.8361 50.7854 53.3543 50.7854C52.7874 50.7854 52.1922 51.1114 51.5687 51.7633C50.9735 52.4151 50.4633 53.478 50.0381 54.9518C49.6413 56.3973 49.4429 58.3105 49.4429 60.6913C49.4429 63.724 49.8256 66.0056 50.5908 67.5361C51.3844 69.0666 52.4048 69.8319 53.6519 69.8319C54.6439 69.8319 55.4658 69.4209 56.1177 68.5989C56.7979 67.777 57.3789 66.289 57.8608 64.1349C57.9458 63.8232 58.1159 63.6673 58.3709 63.6673C58.7111 63.6673 58.8386 63.9507 58.7536 64.5176C58.4418 66.5016 58.0025 68.0462 57.4356 69.1516C56.8971 70.2287 56.2452 70.9797 55.48 71.4049C54.7431 71.8017 53.9069 72.0001 52.9716 72.0001Z" fill="white"/>
<path d="M33.4396 72.0001C32.2492 72.0001 31.2714 71.6316 30.5061 70.8947C29.7408 70.1295 29.3582 69.1233 29.3582 67.8762C29.3582 66.6574 29.7408 65.5096 30.5061 64.4325C31.2714 63.3272 32.32 62.3352 33.6522 61.4565C34.9843 60.5779 36.5006 59.8693 38.2012 59.3308C38.5697 59.2174 38.7539 58.9765 38.7539 58.6081V54.7393C38.7539 53.3788 38.5413 52.4151 38.1162 51.8483C37.691 51.2531 37.11 50.9555 36.3731 50.9555C35.6645 50.9555 35.0126 51.2814 34.4174 51.9333C33.8506 52.5569 33.4396 53.6197 33.1845 55.1219C33.0428 56.0289 32.731 56.6949 32.2492 57.1201C31.7957 57.5169 31.328 57.7153 30.8462 57.7153C30.0526 57.7153 29.6558 57.3185 29.6558 56.5249C29.6558 55.7029 29.8826 54.8951 30.336 54.1015C30.8179 53.2796 31.4414 52.5427 32.2067 51.8908C32.9719 51.2106 33.808 50.6721 34.715 50.2753C35.622 49.8785 36.529 49.6801 37.4359 49.6801C40.2419 49.6801 41.6449 51.3098 41.6449 54.5692V67.5786C41.6449 68.769 41.9425 69.3642 42.5377 69.3642C42.9061 69.3642 43.2462 69.1233 43.558 68.6415C43.8698 68.1313 44.0257 67.281 44.0257 66.0906C44.0257 65.6371 44.2099 65.4104 44.5784 65.4104C44.9185 65.4104 45.0885 65.6513 45.0885 66.1331C45.0885 68.2021 44.7201 69.7043 43.9832 70.6396C43.2746 71.5466 42.4668 72.0001 41.5598 72.0001C40.8796 72.0001 40.3411 71.7308 39.9443 71.1923C39.5475 70.6255 39.2782 69.9594 39.1365 69.1941C39.1082 68.9107 38.9806 68.769 38.7539 68.769C38.5555 68.7407 38.3571 68.8682 38.1587 69.1516C37.4785 70.0869 36.7841 70.7955 36.0755 71.2773C35.3669 71.7592 34.4883 72.0001 33.4396 72.0001ZM34.5875 70.0444C35.3244 70.0444 36.0046 69.7893 36.6282 69.2792C37.2517 68.7407 37.7619 68.0321 38.1587 67.1534C38.5555 66.2748 38.7539 65.2828 38.7539 64.1774V61.0739C38.7539 60.5354 38.4563 60.3795 37.8611 60.6062C36.1322 61.2298 34.7859 62.0942 33.8222 63.1996C32.8869 64.2766 32.4192 65.5804 32.4192 67.1109C32.4192 69.0666 33.142 70.0444 34.5875 70.0444Z" fill="white"/>
<path d="M19.8467 71.6175C19.5066 71.6175 19.3365 71.4616 19.3365 71.1498C19.3365 70.8664 19.4924 70.6963 19.8042 70.6396L20.3994 70.5546C20.9946 70.4696 21.4339 70.2995 21.7174 70.0444C22.0008 69.7894 22.1425 69.3642 22.1425 68.769V44.4083C22.1425 43.8981 22.0575 43.5438 21.8874 43.3454C21.7457 43.147 21.4764 43.0337 21.0796 43.0053L20.1018 42.8778C19.79 42.8211 19.6341 42.651 19.6341 42.3676C19.6341 42.0842 19.79 41.9141 20.1018 41.8574C20.8954 41.6874 21.5756 41.489 22.1425 41.2622C22.7094 41.0355 23.177 40.8087 23.5455 40.582C23.999 40.2986 24.3391 40.1569 24.5658 40.1569C24.8776 40.1569 25.0335 40.3836 25.0335 40.8371V68.769C25.0335 69.3642 25.1185 69.7894 25.2886 70.0444C25.487 70.2712 25.8838 70.4271 26.479 70.5121L27.4568 70.6396C27.7686 70.6963 27.9244 70.8664 27.9244 71.1498C27.9244 71.4616 27.7544 71.6175 27.4143 71.6175H19.8467Z" fill="white"/>
<path d="M0.637776 71.6173C0.212633 71.6173 6.10352e-05 71.4614 6.10352e-05 71.1496C6.10352e-05 70.8945 0.18429 70.7245 0.552747 70.6395L1.53058 70.4694C2.12578 70.356 2.50841 70.2001 2.67846 70.0017C2.87686 69.8033 2.97606 69.4065 2.97606 68.8113V43.8129C2.97606 43.2177 2.87686 42.8209 2.67846 42.6225C2.50841 42.4241 2.12578 42.2682 1.53058 42.1548L0.552747 41.9848C0.18429 41.8998 6.10352e-05 41.7297 6.10352e-05 41.4746C6.10352e-05 41.1628 0.212633 41.007 0.637776 41.007H9.52327C11.1955 41.007 12.6693 41.3754 13.9448 42.1123C15.2202 42.8209 16.2122 43.8129 16.9208 45.0883C17.6293 46.3638 17.9836 47.8376 17.9836 49.5098C17.9836 51.1254 17.6293 52.5567 16.9208 53.8038C16.2122 55.0509 15.2344 56.0287 13.9873 56.7373C12.7402 57.4175 11.2947 57.7576 9.65082 57.7576H6.58978C6.19298 57.7576 5.99458 57.956 5.99458 58.3528V68.6413C5.99458 69.2365 6.10796 69.6475 6.3347 69.8742C6.56144 70.0726 7.07161 70.2427 7.86521 70.3844L9.43824 70.6395C9.75002 70.6961 9.9059 70.852 9.9059 71.1071C9.9059 71.4472 9.69333 71.6173 9.26819 71.6173H0.637776ZM5.99458 54.3565C5.99458 55.9153 6.94407 56.6948 8.84304 56.6948C10.6853 56.6948 12.1308 56.0429 13.1795 54.7391C14.2565 53.4353 14.7951 51.6497 14.7951 49.3823C14.7951 47.0582 14.2565 45.2584 13.1795 43.983C12.1025 42.7075 10.572 42.0698 8.58796 42.0698C6.85904 42.0698 5.99458 42.6367 5.99458 43.7704V54.3565Z" fill="white"/>
<path d="M41.1247 39.751C40.3594 39.751 39.7501 39.4818 39.2966 38.9433C38.8431 38.4331 38.6163 37.8379 38.6163 37.1577C38.6163 36.6191 38.7722 36.1657 39.084 35.7972C39.3958 35.4287 39.8209 35.2445 40.3594 35.2445C40.8129 35.2445 41.1389 35.3437 41.3373 35.5421C41.5357 35.7405 41.6774 35.9673 41.7624 36.2223C41.8474 36.4774 41.9325 36.7042 42.0175 36.9026C42.1025 37.101 42.2726 37.2002 42.5277 37.2002C42.8394 37.2002 43.1229 36.9734 43.3779 36.5199C43.633 36.0948 43.9873 35.1737 44.4408 33.7565C44.7242 32.9062 44.8943 32.1693 44.951 31.5458C45.036 30.9222 45.0218 30.2562 44.9085 29.5476C44.8234 28.839 44.6109 27.9746 44.2707 26.9542L39.6367 12.2017C39.4383 11.5215 39.2399 11.0822 39.0415 10.8838C38.8714 10.6854 38.588 10.5437 38.1912 10.4586L37.5535 10.3311C37.185 10.2461 37.0008 10.0618 37.0008 9.77842C37.0008 9.49499 37.1992 9.35327 37.596 9.35327H44.6109C45.0077 9.35327 45.2061 9.49499 45.2061 9.77842C45.2061 10.0902 45.0218 10.2744 44.6534 10.3311L43.9731 10.4161C43.2929 10.5012 42.8536 10.6712 42.6552 10.9263C42.4851 11.153 42.4993 11.5782 42.6977 12.2017L46.439 24.6584C46.524 24.9419 46.6516 25.0836 46.8216 25.0836C47.02 25.0836 47.1617 24.9419 47.2468 24.6584L50.8605 12.967C51.0872 12.2017 51.1439 11.6349 51.0305 11.2664C50.9455 10.8696 50.5487 10.6145 49.8401 10.5012L48.9473 10.3311C48.5789 10.2461 48.3946 10.0618 48.3946 9.77842C48.3946 9.49499 48.593 9.35327 48.9898 9.35327H54.3892C54.786 9.35327 54.9844 9.50916 54.9844 9.82093C54.9844 10.1044 54.8143 10.3028 54.4742 10.4161L54.0916 10.5437C53.6664 10.6854 53.3121 10.9405 53.0287 11.3089C52.7453 11.6774 52.4477 12.3151 52.1359 13.2221L45.8013 32.9913C45.1777 34.9753 44.6109 36.4491 44.1007 37.4127C43.6189 38.3764 43.1512 38.9999 42.6977 39.2834C42.2442 39.5951 41.7199 39.751 41.1247 39.751Z" fill="white"/>
<path d="M26.4646 31.4182C25.2742 31.4182 24.2964 31.0497 23.5311 30.3128C22.7659 29.5475 22.3832 28.5414 22.3832 27.2943C22.3832 26.0755 22.7659 24.9277 23.5311 23.8506C24.2964 22.7452 25.3451 21.7532 26.6772 20.8746C28.0093 19.996 29.5257 19.2874 31.2262 18.7489C31.5947 18.6355 31.7789 18.3946 31.7789 18.0262V14.1574C31.7789 12.7969 31.5663 11.8332 31.1412 11.2664C30.7161 10.6712 30.135 10.3736 29.3981 10.3736C28.6895 10.3736 28.0376 10.6995 27.4424 11.3514C26.8756 11.9749 26.4646 13.0378 26.2095 14.54C26.0678 15.447 25.756 16.113 25.2742 16.5382C24.8207 16.935 24.3531 17.1334 23.8712 17.1334C23.0776 17.1334 22.6808 16.7366 22.6808 15.943C22.6808 15.121 22.9076 14.3132 23.3611 13.5196C23.8429 12.6977 24.4664 11.9608 25.2317 11.3089C25.997 10.6287 26.8331 10.0901 27.74 9.69335C28.647 9.29655 29.554 9.09814 30.461 9.09814C33.2669 9.09814 34.6699 10.7279 34.6699 13.9873V26.9967C34.6699 28.1871 34.9675 28.7823 35.5627 28.7823C35.9311 28.7823 36.2713 28.5414 36.583 28.0595C36.8948 27.5494 37.0507 26.6991 37.0507 25.5087C37.0507 25.0552 37.2349 24.8285 37.6034 24.8285C37.9435 24.8285 38.1136 25.0694 38.1136 25.5512C38.1136 27.6202 37.7451 29.1224 37.0082 30.0577C36.2996 30.9647 35.4918 31.4182 34.5849 31.4182C33.9046 31.4182 33.3661 31.1489 32.9693 30.6104C32.5725 30.0435 32.3033 29.3775 32.1615 28.6122C32.1332 28.3288 32.0057 28.1871 31.7789 28.1871C31.5805 28.1587 31.3821 28.2863 31.1837 28.5697C30.5035 29.505 29.8091 30.2136 29.1005 30.6954C28.3919 31.1773 27.5133 31.4182 26.4646 31.4182ZM27.6125 29.4625C28.3494 29.4625 29.0296 29.2074 29.6532 28.6973C30.2767 28.1587 30.7869 27.4502 31.1837 26.5715C31.5805 25.6929 31.7789 24.7009 31.7789 23.5955V20.492C31.7789 19.9535 31.4813 19.7976 30.8861 20.0243C29.1572 20.6479 27.8109 21.5123 26.8472 22.6177C25.9119 23.6947 25.4443 24.9985 25.4443 26.529C25.4443 28.4847 26.167 29.4625 27.6125 29.4625Z" fill="white"/>
<path d="M11.5638 31.4181C9.26803 31.4181 7.32654 30.7662 5.73934 29.4624C4.15213 28.1587 2.94756 26.3306 2.12562 23.9781C1.30367 21.5973 0.8927 18.7913 0.8927 15.5603C0.8927 12.4425 1.37453 9.72161 2.33819 7.3975C3.30185 5.04503 4.61979 3.23109 6.29202 1.95566C7.9926 0.651887 9.93408 0 12.1165 0C13.2219 0 14.228 0.113371 15.135 0.340113C16.042 0.538514 16.8356 0.807772 17.5158 1.14789C17.8843 1.34629 18.0685 1.64389 18.0685 2.04069L18.196 8.50287C18.196 8.9847 18.026 9.22561 17.6859 9.22561C17.3741 9.22561 17.1757 9.04139 17.0907 8.67293L16.7506 7.3975C16.127 5.04503 15.4184 3.42949 14.6248 2.55086C13.8312 1.67223 12.74 1.23292 11.3512 1.23292C9.2822 1.23292 7.56745 2.46583 6.20699 4.93166C4.87488 7.36915 4.20882 10.912 4.20882 15.5603C4.20882 20.3502 4.88905 24.0064 6.24951 26.529C7.63831 29.0231 9.40974 30.2702 11.5638 30.2702C12.7259 30.2702 13.6045 30.0151 14.1997 29.505C14.7949 28.9948 15.0925 28.0453 15.0925 26.6565V17.3459C15.0925 16.7507 14.9933 16.3397 14.7949 16.1129C14.6248 15.8862 14.2422 15.7445 13.647 15.6878L11.9889 15.5177C11.6205 15.4894 11.4363 15.3193 11.4363 15.0076C11.4363 14.6958 11.6488 14.5399 12.074 14.5399H19.8541C20.2792 14.5399 20.4918 14.71 20.4918 15.0501C20.4918 15.3052 20.3359 15.4611 20.0242 15.5177L19.3864 15.6028C18.7629 15.6878 18.3944 15.8579 18.2811 16.1129C18.1677 16.368 18.111 16.7932 18.111 17.3884V28.9098C18.111 29.2215 18.026 29.4766 17.8559 29.675C17.6859 29.8451 17.3883 30.0435 16.9631 30.2702C16.2829 30.6103 15.5035 30.8796 14.6248 31.078C13.7462 31.3047 12.7259 31.4181 11.5638 31.4181Z" fill="white"/>
</svg>
